# xmcd
#
# Track frame offsets:
#	150
#	26536
#	44389
#	63548
#	93741
#	107975
#	123359
#	135054
#	154269
#	173157
#	188447
#	206230
#
# Disc length: 3105 seconds
#
# Revision: 1
# Processed by: cddbd v1.5.2PL0 Copyright (c) Steve Scherf et al.
# Submitted via: audiograbber 1.83.01
#
DISCID=a20c1f0c
DTITLE=Alvin Youngblood Hart - Motivational Speaker
DYEAR=2005
DGENRE=Blues Rock
TTITLE0=Big Mama's Door (Might Return)
TTITLE1=Motivational Speaker
TTITLE2=Stomp Dance
TTITLE3=In My Time of Dying
TTITLE4=Lawd I'm Just a Country Boy in This Great Big Freaky City
TTITLE5=My World is Round
TTITLE6=Nobody's Fault but Mine
TTITLE7=Shoot Me a Grin
TTITLE8=Worm
TTITLE9=Necessary Roughness (A Power Move)
TTITLE10=Meanest Jukebox in Town
TTITLE11=How Long Before I Change My Clothes
EXTD=
EXTT0=
EXTT1=
EXTT2=
EXTT3=
EXTT4=
EXTT5=
EXTT6=
EXTT7=
EXTT8=
EXTT9=
EXTT10=
EXTT11=
PLAYORDER=
